<?xml version="1.0" encoding="UTF-8" standalone="no"?>
<svg
   xmlns:dc="http://purl.org/dc/elements/1.1/"
   xmlns:cc="http://creativecommons.org/ns#"
   xmlns:rdf="http://www.w3.org/1999/02/22-rdf-syntax-ns#"
   xmlns:svg="http://www.w3.org/2000/svg"
   xmlns="http://www.w3.org/2000/svg"
   id="SVGRoot"
   version="1.1"
   viewBox="0 0 16 16"
   height="16px"
   width="16px">
  <defs
     id="defs9594" />
  <metadata
     id="metadata9597">
    <rdf:RDF>
      <cc:Work
         rdf:about="">
        <dc:format>image/svg+xml</dc:format>
        <dc:type
           rdf:resource="http://purl.org/dc/dcmitype/StillImage" />
        <dc:title></dc:title>
      </cc:Work>
    </rdf:RDF>
  </metadata>
  <g
     id="layer1">
    <g
       transform="translate(1.038571,-0.01236653)"
       id="g10169">
      <path
         id="path6917"
         d="M 6.9600553,0.56663425 A 6.973791,6.973791 0 0 0 0.04395062,6.6927951 2.4408268,2.4408268 0 0 1 2.3314084,5.0995639 2.4408268,2.4408268 0 0 1 4.6366772,6.7471853 2.4408268,2.4408268 0 0 1 6.9422389,5.0995639 2.4408268,2.4408268 0 0 1 9.2599175,6.7844054 2.4408268,2.4408268 0 0 1 11.579039,5.0995639 2.4408268,2.4408268 0 0 1 13.878903,6.7386714 6.973791,6.973791 0 0 0 6.9600553,0.56663425 Z"
         style="opacity:1;fill:#000000;fill-opacity:1;stroke:#000000;stroke-width:0.01128348;stroke-linecap:round;stroke-miterlimit:4;stroke-dasharray:none;stroke-dashoffset:0;stroke-opacity:1" />
      <path
         id="path6919"
         d="M 6.9614289,0.331731 V 14.452729"
         style="fill:none;stroke:#000000;stroke-width:0.55835468;stroke-linecap:round;stroke-linejoin:round;stroke-miterlimit:4;stroke-dasharray:none;stroke-opacity:1" />
      <path
         d="m 6.9588872,14.426786 a 1.2703615,1.2703615 0 0 1 -0.6371694,1.101312 1.2703615,1.2703615 0 0 1 -1.272344,-0.0034 1.2703615,1.2703615 0 0 1 -0.631191,-1.104748"
         id="path6921"
         style="opacity:1;fill:none;fill-opacity:1;stroke:#000000;stroke-width:0.55835468;stroke-linecap:round;stroke-linejoin:round;stroke-miterlimit:4;stroke-dasharray:none;stroke-dashoffset:0;stroke-opacity:1" />
    </g>
  </g>
</svg>
