<?xml version="1.0" encoding="UTF-8" standalone="no"?>
<!-- Created with Inkscape (http://www.inkscape.org/) -->

<svg
   xmlns:dc="http://purl.org/dc/elements/1.1/"
   xmlns:cc="http://creativecommons.org/ns#"
   xmlns:rdf="http://www.w3.org/1999/02/22-rdf-syntax-ns#"
   xmlns:svg="http://www.w3.org/2000/svg"
   xmlns="http://www.w3.org/2000/svg"
   xmlns:sodipodi="http://sodipodi.sourceforge.net/DTD/sodipodi-0.dtd"
   xmlns:inkscape="http://www.inkscape.org/namespaces/inkscape"
   width="139.7804mm"
   height="254.82124mm"
   viewBox="0 0 139.7804 254.82124"
   version="1.1"
   id="svg2050"
   inkscape:version="0.92.5 (2060ec1f9f, 2020-04-08)"
   sodipodi:docname="Prototype-Poisoning_white.svg">
  <defs
     id="defs2045" />
  <sodipodi:namedview
     id="base"
     pagecolor="#ffffff"
     bordercolor="#666666"
     borderopacity="1.0"
     inkscape:pageopacity="0.0"
     inkscape:pageshadow="2"
     inkscape:zoom="0.98994949"
     inkscape:cx="329.77728"
     inkscape:cy="576.68346"
     inkscape:document-units="mm"
     showgrid="false"
     inkscape:window-width="3696"
     inkscape:window-height="2032"
     inkscape:window-x="144"
     inkscape:window-y="54"
     inkscape:window-maximized="1"
     inkscape:current-layer="svg2050" />
  <metadata
     id="metadata2048">
    <rdf:RDF>
      <cc:Work
         rdf:about="">
        <dc:format>image/svg+xml</dc:format>
        <dc:type
           rdf:resource="http://purl.org/dc/dcmitype/StillImage" />
        <dc:title></dc:title>
      </cc:Work>
    </rdf:RDF>
  </metadata>
  <path
     style="fill:#ffffff;fill-opacity:1;stroke:#000000;stroke-width:5.00000006;stroke-linecap:butt;stroke-linejoin:miter;stroke-opacity:1;stroke-miterlimit:4;stroke-dasharray:none"
     d="m 264.59766,1.0390625 c -38.99405,0 -77.98828,12.9981145 -77.98828,38.9941405 V 183.53125 c 0,0 -166.373052,79.62537 -166.373052,158.05469 0,18.61885 0.02712,38.78573 0.03906,58.16015 0.261331,0.34182 0.781243,0.96016 2.113281,2.03516 3.377797,2.72598 11.109974,7.42834 26.751953,12.29883 31.283958,9.74101 93.938648,26.09375 215.013678,26.09375 122.11988,0 184.78635,-16.36144 215.77148,-26.08594 15.49255,-4.86225 22.9823,-9.54402 26.14649,-12.1875 1.49669,-1.25042 1.93758,-1.93325 2.04492,-2.09766 0.21549,-0.60229 0.48969,-1.17105 0.80273,-1.71093 0.0123,-18.86491 0.0391,-37.61396 0.0391,-56.50586 0,-78.42932 -166.37304,-158.05469 -166.37304,-158.05469 V 40.033203 c 0,-25.996026 -38.99424,-38.9941405 -77.98828,-38.9941405 z M 508.91992,398.0918 c 0.0571,9.50634 -0.0115,17.79001 -0.0195,26.67773 -0.0427,-10.14131 0.11269,-16.20365 0.0195,-26.67773 z m -0.0195,26.67773 c -5.67965,3.02524 -13.05549,6.11941 -22.74414,9.16016 -34.52455,10.8353 -98.72047,27.03906 -222.00195,27.03906 -122.24653,0 -186.453602,-16.21239 -221.199222,-27.03125 -9.590457,-2.9862 -16.947604,-6.02295 -22.662109,-8.98242 0.08039,96.96705 0.247384,195.7193 0.384765,280.37695 0.03482,0.19379 0.06413,0.38853 0.08789,0.58399 0,0 0.171111,3.24894 4.193359,10.51757 4.02225,7.26864 11.76057,17.50362 27.039063,28.15625 30.556993,21.30528 91.807094,44.17188 212.156254,44.17188 121.40018,0 182.6521,-22.88749 212.9082,-44.15039 15.12801,-10.63147 22.64623,-20.81897 26.50781,-28.04297 3.86162,-7.224 3.94922,-10.42383 3.94922,-10.42383 0.10509,-1.24946 0.43527,-2.46961 0.97461,-3.60156 0.13618,-87.96553 0.31955,-181.99849 0.40625,-277.77344 z m -0.40625,277.77344 c -0.0222,14.33393 -0.0372,28.37995 -0.0547,42.34765 0,-15.73566 0.0547,-20.7062 0.0547,-42.34765 z m -0.0547,42.34765 c -5.1001,5.47132 -11.466,11.14797 -19.41797,16.73633 -35.25358,24.77496 -100.86601,47.92969 -224.86718,47.92969 -122.9724,0 -188.576242,-23.17562 -224.048831,-47.9082 -7.876624,-5.49182 -14.235233,-11.06383 -19.363281,-16.43946 0.05414,36.86927 0.0918,69.51704 0.0918,94.97266 0,162.50916 487.527342,162.50916 487.527342,0 0,-30.2793 0.0371,-62.59802 0.0781,-95.29102 z m -487.697262,0.31836 c -0.01787,-12.16763 -0.04323,-26.79881 -0.06445,-39.87695 0,17.12182 0.06445,23.16803 0.06445,39.87695 z m -0.449219,-320.2539 c -0.007,-8.48993 -0.0124,-16.81132 -0.01758,-25.20899 -0.05982,-0.0782 0.02655,0.0385 -2.1e-5,0 -0.03157,8.49427 0.0176,15.50055 0.0176,25.20899 z m 173.333981,95.58398 h 26.99024 l 44.00586,64.3086 47.17578,-64.3086 h 26.99023 l -60.43554,81.44141 65.13086,88.7168 h -26.99219 l -51.86914,-71.93555 -51.86719,71.93555 h -26.99219 l 65.13086,-88.7168 z"
     transform="scale(0.26458333)"
     id="path819"
     inkscape:connector-curvature="0"
     sodipodi:nodetypes="cscsccssscccscsscccccsccccsssccccccsccscccsscccccccccccccccccccccccc" />
</svg>
