<?xml version="1.0" encoding="UTF-8" standalone="no"?>
<!-- Created with Inkscape (http://www.inkscape.org/) -->

<svg
   xmlns:dc="http://purl.org/dc/elements/1.1/"
   xmlns:cc="http://creativecommons.org/ns#"
   xmlns:rdf="http://www.w3.org/1999/02/22-rdf-syntax-ns#"
   xmlns:svg="http://www.w3.org/2000/svg"
   xmlns="http://www.w3.org/2000/svg"
   xmlns:sodipodi="http://sodipodi.sourceforge.net/DTD/sodipodi-0.dtd"
   xmlns:inkscape="http://www.inkscape.org/namespaces/inkscape"
   width="256.91687mm"
   height="131.95369mm"
   viewBox="0 0 256.91688 131.95369"
   version="1.1"
   id="svg2050"
   inkscape:version="0.92.5 (2060ec1f9f, 2020-04-08)"
   sodipodi:docname="Prototype-Poisoning_white.svg">
  <defs
     id="defs2045" />
  <sodipodi:namedview
     id="base"
     pagecolor="#ffffff"
     bordercolor="#666666"
     borderopacity="1.0"
     inkscape:pageopacity="0.0"
     inkscape:pageshadow="2"
     inkscape:zoom="0.98994949"
     inkscape:cx="242.5953"
     inkscape:cy="344.49217"
     inkscape:document-units="mm"
     showgrid="false"
     inkscape:window-width="3696"
     inkscape:window-height="2032"
     inkscape:window-x="144"
     inkscape:window-y="54"
     inkscape:window-maximized="1"
     inkscape:current-layer="svg2050" />
  <metadata
     id="metadata2048">
    <rdf:RDF>
      <cc:Work
         rdf:about="">
        <dc:format>image/svg+xml</dc:format>
        <dc:type
           rdf:resource="http://purl.org/dc/dcmitype/StillImage" />
        <dc:title></dc:title>
      </cc:Work>
    </rdf:RDF>
  </metadata>
  <path
     style="fill:#ffffff;fill-opacity:1;stroke:#000000;stroke-width:2.64583325;stroke-linecap:butt;stroke-linejoin:miter;stroke-miterlimit:4;stroke-dasharray:none;stroke-opacity:1"
     d="m 1.3229166,65.976837 c 0,10.31717 3.439085,20.6344 10.3171994,20.6344 h 37.967191 c 0,0 21.067546,44.019533 41.818636,44.019533 4.926238,0 10.262057,-0.007 15.388207,-0.0103 0.0904,-0.0691 0.25404,-0.20671 0.53847,-0.55914 0.72125,-0.89371 1.96542,-2.93952 3.25407,-7.07812 2.57731,-8.27722 6.90397,-24.854603 6.90397,-56.889043 0,-32.310882 -4.32897,-48.891386 -6.90191,-57.0895334 -1.28647,-4.099071 -2.52519,-6.080734 -3.22461,-6.917926 -0.33084,-0.395999 -0.5115,-0.512651 -0.555,-0.541052 -0.15936,-0.05701 -0.30984,-0.129563 -0.45269,-0.212389 -4.99134,-0.0033 -9.952025,-0.01035 -14.950507,-0.01035 -20.75109,0 -41.818636,44.0195304 -41.818636,44.0195304 H 11.640116 c -6.8781144,0 -10.3171994,10.31722 -10.3171994,20.6344 z M 106.37645,1.3332366 c 2.51522,-0.01511 4.70694,0.003 7.05849,0.0052 -2.68322,0.0113 -4.28722,-0.02982 -7.05849,-0.0052 z m 7.05849,0.0052 c 0.80043,1.502741 1.61909,3.454265 2.42362,6.01772 2.86684,9.1346204 7.15409,26.1197904 7.15409,58.7380104 0,32.3444 -4.28953,49.332523 -7.15202,58.525633 -0.7901,2.53748 -1.59357,4.48405 -2.3766,5.99602 25.65587,-0.0213 51.78407,-0.0655 74.18307,-0.10181 0.0513,-0.009 0.1028,-0.017 0.15451,-0.0232 0,0 0.85962,-0.0453 2.78278,-1.10949 1.92316,-1.06422 4.63116,-3.11165 7.44967,-7.15409 5.63702,-8.08487 11.68714,-24.290623 11.68714,-56.133013 0,-32.12046 -6.05565,-48.326697 -11.68145,-56.3319554 -2.81291,-4.002619 -5.50836,-5.991815 -7.41971,-7.013525 -1.91135,-1.02172 -2.75797,-1.044898 -2.75797,-1.044898 -0.33058,-0.02781 -0.65342,-0.115165 -0.95291,-0.257865 -23.27421,-0.03603 -48.15377,-0.08455 -73.49422,-0.107487 z m 73.49422,0.107487 c 3.79252,0.0059 7.50886,0.0098 11.20448,0.01447 -4.16339,0 -5.47851,-0.01447 -11.20448,-0.01447 z m 11.20448,0.01447 c 1.44762,1.349401 2.94957,3.033712 4.42816,5.137671 6.55504,9.3275084 12.68139,26.6874634 12.68139,59.4961124 0,32.53644 -6.13188,49.894133 -12.67571,59.279583 -1.45304,2.08403 -2.9273,3.76641 -4.34961,5.1232 9.755,-0.0143 18.39305,-0.0243 25.12819,-0.0243 42.99721,0 42.99721,-128.9916174 0,-128.9916174 -8.0114,0 -16.5624,-0.0098 -25.21242,-0.02066 z m 0.0842,129.0365664 c -3.21935,0.005 -7.09051,0.0114 -10.55077,0.0171 4.53015,0 6.12987,-0.0171 10.55077,-0.0171 z m -84.73384,0.11886 c -2.24629,0.002 -4.44799,0.003 -6.66988,0.005 -0.0207,0.0158 0.0102,-0.007 0,1e-5 2.24744,0.008 4.10119,-0.005 6.66988,-0.005 z m 25.28993,-45.861283 v -7.14117 l 17.01501,-11.64326 -17.01498,-12.48192 v -7.14117 l 21.54804,15.99024 23.47298,-17.23254 v 7.14168 l -19.03294,13.72371 19.03294,13.7232 v 7.14168 L 160.322,69.602447 Z"
     id="path819"
     inkscape:connector-curvature="0"
     sodipodi:nodetypes="cscsccssscccscsscccccsccccsssccccccsccscccsscccccccccccccccccccccccc" />
</svg>
